<?xml version="1.0"?><svg width="1052.3622" height="744.09448" xmlns="http://www.w3.org/2000/svg" xmlns:xlink="http://www.w3.org/1999/xlink">
 <title>truk</title>
 <defs>
  <linearGradient id="linearGradient2899">
   <stop id="stop2901" offset="0" stop-color="#000000"/>
   <stop id="stop2903" offset="1" stop-color="#878787"/>
  </linearGradient>
  <linearGradient id="linearGradient2854">
   <stop id="stop2856" offset="0" stop-opacity="0.816327" stop-color="#ffffd9"/>
   <stop id="stop2866" offset="0.5" stop-color="#ffffd9"/>
   <stop id="stop2858" offset="1" stop-color="#ffffd9"/>
  </linearGradient>
  <linearGradient id="linearGradient2806">
   <stop id="stop2808" offset="0" stop-color="#000000"/>
   <stop id="stop2810" offset="1" stop-opacity="0" stop-color="#000000"/>
  </linearGradient>
  <linearGradient id="linearGradient2760">
   <stop id="stop2762" offset="0" stop-color="#000000"/>
   <stop id="stop2764" offset="1" stop-opacity="0" stop-color="#000000"/>
  </linearGradient>
  <linearGradient id="linearGradient2678">
   <stop id="stop2680" offset="0" stop-color="#2c2f68"/>
   <stop id="stop2682" offset="1" stop-color="#a1b6c3"/>
  </linearGradient>
  <linearGradient id="linearGradient2620">
   <stop id="stop2622" offset="0" stop-color="#000000"/>
   <stop id="stop2624" offset="1" stop-color="#d0d0d6"/>
  </linearGradient>
  <linearGradient id="linearGradient2660" x1="0.424738" x2="0.309169" xlink:href="#linearGradient2620" y1="1.079548" y2="-1.609738"/>
  <linearGradient id="linearGradient2672" x1="0.466122" x2="0.54066" xlink:href="#linearGradient2620" y1="0.280527" y2="-0.260303"/>
  <linearGradient id="linearGradient2684" x1="0.206027" x2="0.915235" xlink:href="#linearGradient2678" y1="0.406298" y2="0.385475"/>
  <linearGradient id="linearGradient2744" x1="-0.296455" x2="0.940146" xlink:href="#linearGradient2620" y1="0.571098" y2="0.428873"/>
  <linearGradient id="linearGradient2754" x1="-0.254838" x2="1.258159" xlink:href="#linearGradient2620" y1="0.855061" y2="-0.320564"/>
  <linearGradient id="linearGradient2766" x1="1.051455" x2="0.122464" xlink:href="#linearGradient2760" y1="0.412513" y2="0.603378"/>
  <linearGradient id="linearGradient2812" x1="0.460346" x2="0.831662" xlink:href="#linearGradient2806" y1="0.205655" y2="1.570351"/>
  <linearGradient id="linearGradient2864" x1="-0.00625" x2="1.006304" xlink:href="#linearGradient2854" y1="0.500014" y2="0.500014"/>
  <linearGradient id="linearGradient2893" x1="1.940368" x2="-2.88111" xlink:href="#linearGradient2899" y1="0.428561" y2="0.484132"/>
 </defs>
 <g transform="scale(-1, 1) translate(-1000, 0)">
  <title>Layer 1</title>
  <g id="layer1">
    
   <path d="m51.453239,571.934265c0,0 472.602119,99.579163 570.924995,99.633179c98.322876,0.054016 384.064758,-35.951172 348.214905,-48.024902c-35.849792,-12.07373 -255.367798,-47.995605 -400.308533,-54.643555c-144.940765,-6.64801 -164.638519,-26.941406 -246.363922,-19.623901c-81.725388,7.317444 -264.948154,-0.939575 -272.467445,22.65918z" id="path2788" stroke-opacity="0.572973" stroke-miterlimit="4" stroke-width="21.969275" stroke="#d9dcdc" fill-rule="evenodd" fill="url(#linearGradient2812)" opacity="0.504293"/>
   <path d="m71.190041,539.008118l27.605072,-130.138153l287.881401,-15.774323l177.461121,-17.746124l368.724792,116.335632l-19.717896,104.504913c0,0 -7.887146,15.774292 -21.689697,23.661499c-13.802551,7.887146 -39.435791,13.80249 -55.210144,9.858948c-15.774292,-3.943604 -29.576843,-5.915405 -37.463989,-19.717896c-7.887146,-13.802551 -55.210144,-72.956238 -55.210144,-72.956238l-78.871643,25.63324c0,0 0,17.746094 -9.858948,43.379395c-9.858948,25.63324 -13.80249,35.492249 -25.63324,39.435791c-11.83075,3.943604 -54.855286,7.25946 -68.118835,3.315918c-23.661499,-3.943604 -44.273193,-92.046509 -44.273193,-92.046509l-17.746124,1.971802c0,0 5.915344,7.887207 -15.774353,15.774353c-21.689667,7.887146 -102.533081,9.858948 -161.686798,9.858948c-59.153717,0 -90.727417,5.322144 -114.388885,5.322144c-6.658981,-10.109558 -15.749283,-15.181091 -15.749283,-15.181091c0,0 -9.858948,0 -39.435791,-1.971802c-29.576866,-1.971802 -30.11158,5.246948 -34.055176,-4.612c-3.943565,-9.858948 -17.21138,-30.880188 -17.21138,-30.880188l-29.576859,1.971741l-0.000008,0z" id="path2756" stroke-width="1.098464px" stroke="#000000" fill-rule="evenodd" fill="#000000"/>
   <path d="m81.049004,513.374878c7.887154,-65.069092 15.77433,-90.702362 15.77433,-90.702362l3.943565,-7.887177l120.279213,5.915375l15.774323,53.238342l9.858963,0l94.64592,-5.915375l-1.971771,-55.210144l-108.448471,-3.943573l-128.166382,-5.915375l-11.830742,23.661499l-9.858948,86.758789z" id="path2746" stroke-width="1.098464px" stroke="#000000" fill-rule="evenodd" fill="url(#linearGradient2754)"/>
   <path d="m337.827423,412.234802l-103.979202,3.899231l16.896622,57.188538l97.480499,-2.599487l-10.397919,-58.488281z" id="path2758" stroke-width="1px" fill-rule="evenodd" fill="url(#linearGradient2766)"/>
   <path d="m432.027679,402.95459l5.915375,153.799622l63.09729,7.887207l3.943573,-88.73056c0,0 9.858978,-19.717926 23.661469,-29.576874c13.802551,-9.858948 43.379395,-11.83075 57.181946,-3.943573c13.802551,7.887146 33.520447,21.689697 39.435791,41.407593c5.915405,19.717896 -1.971802,94.645966 23.661499,94.645966c25.633301,0 53.238342,-5.915405 53.238342,-5.915405l7.887146,-72.956238l-3.943604,-67.040863l-100.561279,-51.266571l-153.799652,-3.943573l-19.717896,25.63327z" id="path2688" stroke-miterlimit="4" stroke-width="5.492319" stroke="#000000" fill-rule="evenodd" fill-opacity="0.978378" fill="#232326"/>
   <rect height="74.35006" id="rect2868" rx="8.794093" ry="20.27729" width="52.764561" x="802.44312" y="190.15065" stroke-opacity="0.918919" stroke-dashoffset="0" stroke-miterlimit="4" stroke-linejoin="round" stroke-linecap="round" fill-rule="nonzero" fill="#101111"/>
   <g>
   <path d="m461.988007,159.258163l-6.971313,90.627319l112.935577,27.88533l264.910583,2.788544l-6.971375,-118.51265l-237.025269,-13.942673l-126.878204,11.154129z" id="path2676" stroke-miterlimit="4" stroke-width="16.476957" stroke="#000000" fill-rule="evenodd" fill="url(#linearGradient2684)"/>
   <path d="m551.221069,396.283447l41.827942,0l4.182861,-111.541321l-61.347717,-6.971313l5.577026,108.752777l9.759888,9.759857z" id="path2674" stroke-width="1.098464px" stroke="#000000" fill-rule="evenodd" fill="#007fff"/>

   <path d="m700.407532,459.01059l0,48.787506c0,0 11.154175,3.484833 29.279602,3.484833c18.125488,0 59.953491,5.227203 64.13623,1.742401c4.1828,-3.484833 8.365662,-55.757141 -2.788513,-59.241974c-11.154114,-3.484802 -47.405029,3.484833 -58.559204,1.742432c-11.154114,-1.742432 -30.673828,-5.227234 -32.068115,3.484802z" id="path2662" stroke-width="1.227971px" stroke="#000000" fill-rule="evenodd" fill="url(#linearGradient2864)"/>
   <path d="m979.260803,500.853424c0,-9.759857 -2.788513,-36.250946 2.788513,-40.433716c5.577087,-4.1828 16.731201,-11.154144 20.914001,-9.759857c4.1828,1.394257 5.577087,13.942627 5.577087,22.308258c0,8.36557 4.1828,23.702515 -2.788513,26.491028c-6.971375,2.788544 -20.914001,4.1828 -26.491089,1.394287z" id="path2664" stroke-width="1.098464px" stroke="#000000" fill-rule="evenodd" fill="#ffffd9"/>
   <path d="m44.78529,225.94754l301.292927,-34.523148l28.246216,-94.15403l69.046295,-21.969284l6.276947,9.415398l-59.63089,50.2155l-3.138489,266.769775l-304.431389,-3.138458l-12.553856,9.415405l-25.107761,-25.107758l0,-156.923401z" id="path1846" stroke-miterlimit="4" stroke-width="2.196928" stroke="#000000" fill-rule="evenodd" fill="#3f3f3f"/>
   <path d="m448.237854,86.67057l298.909729,28.967079l2.181824,-14.483551l-305.4552,-26.897987l4.363647,12.414459z" id="path1850" stroke-miterlimit="4" stroke-width="2.139412" stroke="#000000" fill-rule="evenodd" fill="#d7dadc"/>
   <path d="m384.964996,401.399658l6.545471,-266.182373l56.727386,-50.181915l298.909729,30.545517l-37.091003,15.272751l-205.091339,-6.545471l-48.000092,15.272766l-21.818207,233.455017l0,43.636475l-45.818298,0c0,0 -30.545502,6.545441 -21.818207,-2.181824c8.727264,-8.727325 17.454559,-13.090942 17.454559,-13.090942z" id="path1852" stroke-width="1.098464px" stroke="#000000" fill-rule="evenodd" fill="url(#linearGradient2672)"/>
   <path d="m622.78302,560.339966a56.15271,91.546516 0 1 1 -112.30542,0a56.15271,91.546516 0 1 1 112.30542,0z" id="path1856" stroke-dashoffset="0" stroke-miterlimit="4" stroke-linejoin="round" stroke-linecap="round" stroke-width="5.46" fill-rule="nonzero" fill="#232323"/>
   <path d="m240.963867,517.734802a34.728218,72.516586 0 1 1 -69.456421,0a34.728218,72.516586 0 1 1 69.456421,0z" id="path1858" stroke-dashoffset="0" stroke-miterlimit="4" stroke-linejoin="round" stroke-linecap="round" stroke-width="5.46" fill-rule="nonzero" fill="#181a1a"/>
   <path d="m152.477982,507.396729a30.15167,66.36451 0 1 1 -60.303345,0a30.15167,66.36451 0 1 1 60.303345,0z" id="path1860" stroke-dashoffset="0" stroke-miterlimit="4" stroke-linejoin="round" stroke-linecap="round" stroke-width="5.46" fill-rule="nonzero" fill="#1e1e1e"/>

   <path d="m431.314148,386.52359c0,0 0,-50.193604 1.394287,-78.078918c1.394257,-27.885315 13.942657,-158.946365 15.336914,-164.523438c1.394257,-5.577057 5.577057,-8.365585 23.702515,-13.942657c18.125488,-5.577057 36.250946,-5.577057 69.713318,-8.365593c33.462402,-2.788536 61.347717,0 61.347717,0c0,0 92.021606,8.365593 122.695435,9.75985c30.673889,1.394272 105.964233,8.365616 111.541321,11.154144c5.577026,2.788528 8.365601,16.731186 8.365601,16.731186c0,0 -107.358521,-9.759857 -129.666748,-11.154129c-22.308289,-1.394257 -118.512634,-6.971313 -118.512634,-6.971313c0,0 -13.942688,0 -19.519775,0c-5.577026,0 -16.731201,1.394257 -16.731201,1.394257l-103.17569,9.759872c0,0 -2.788513,-5.577072 -4.1828,4.182785c-1.394257,9.759872 -6.971313,92.021576 -6.971313,92.021576c0,0 0,5.577072 2.788513,6.971344c2.788544,1.394257 108.752777,23.702515 108.752777,23.702515c0,0 -2.788513,1.394287 -2.788513,9.759857c0,8.365601 0,107.358521 0,107.358521c0,0 -118.512665,4.1828 -124.089722,-9.759857z" id="path2642" stroke-miterlimit="4" stroke-width="2.196928" stroke="#000000" fill-rule="evenodd" fill="#007fff"/>
   <path d="m587.471985,396.283447c0,0 -5.577087,-72.501862 -2.788513,-90.627319c2.788513,-18.125458 12.548401,-22.308258 12.548401,-22.308258l90.627258,0l132.455322,2.788544l22.308228,0c0,0 34.856689,9.759857 66.924805,22.308258c32.068115,12.548401 62.742004,22.308258 72.501831,34.856659c9.759888,12.548401 15.336975,18.125458 18.125488,33.462402c2.788513,15.336914 2.788513,75.290375 2.788513,75.290375c0,0 -18.125427,0 -19.519714,8.365601c-1.394287,8.365601 -4.1828,40.433716 -4.1828,40.433716c0,0 -47.405029,13.942657 -92.021545,13.942657c-44.616577,0 -76.684692,1.394287 -83.656006,-1.394287c-6.971313,-2.788513 -9.759888,-13.942657 -9.759888,-13.942657c0,0 4.1828,-33.462372 -2.788513,-37.645172c-6.971313,-4.1828 -30.673828,-1.394257 -65.530518,-4.1828c-34.856628,-2.788544 -55.77063,6.971313 -73.896118,-8.365601c-18.125427,-15.336914 -29.279602,-43.22226 -41.828003,-48.799316c-12.54834,-5.577057 -22.308228,-4.1828 -22.308228,-4.1828z" id="path2644" stroke-miterlimit="4" stroke-width="2.196928" stroke="#000000" fill-rule="evenodd" fill="#007fff"/>

      <animateTransform
            attributeName="transform"
            begin="0s"
            dur="0.15s"
            type="rotate"
            from="0 1.5 1.5"
            to="1.5 1.5 0"
            repeatCount="indefinite"
        />

   </g>
   <path d="m795.217651,502.247681c0,0 0,-122.695435 -4.1828,-128.272491c-4.1828,-5.577057 0,-5.577057 0,-5.577057l185.437439,2.788513c0,0 8.365601,48.799316 6.971313,72.501862c-1.394287,23.702515 -6.971313,59.95343 -6.971313,59.95343c0,0 -51.58783,8.365631 -86.444519,9.759857c-34.856689,1.394287 -76.684631,4.1828 -83.656006,0c-6.971313,-4.18277 -11.154114,-11.154114 -11.154114,-11.154114z" id="path2646" stroke-width="1.098464px" stroke="#000000" fill-rule="evenodd" fill-opacity="0.82" fill="#005ab5"/>
   <path d="m601.414612,291.71347l167.312012,59.953461l206.351379,1.394257c0,0 -9.759827,-13.942657 -23.702515,-13.942657c-13.942688,0 -121.301147,13.942657 -186.831665,-5.577057c-65.530518,-19.519745 -138.03241,-41.828003 -149.186523,-41.828003c-11.154114,0 -13.942688,0 -13.942688,0z" id="path2648" stroke-width="1px" fill-rule="evenodd" fill-opacity="0.589189" fill="#ffffff"/>
   
   <path d="m1011.560425,501.826111c0,0 2.963989,-5.48584 2.566101,7.056244c-0.397949,12.542084 4.778503,25.261017 -0.928406,29.264862c-5.706909,4.003845 -6.879395,-3.008179 -11.723328,17.762695c-4.843811,20.770813 3.384888,25.216797 -3.715515,29.176453c-7.100464,3.959656 -259.998901,16.861023 -259.998901,16.861023c0,0 -27.915527,0.509338 -36.100098,-5.3302c-8.184509,-5.839539 -5.906738,-33.666626 -8.472839,-40.722839c-2.566101,-7.056274 -9.445496,-10.064453 -9.445496,-10.064453c0,0 -4.380554,-37.803101 1.193726,-37.626251c5.574219,0.176819 27.782837,3.671326 51.47345,4.422882c23.690613,0.751587 90.625977,1.480164 170.236023,-1.574127c79.610046,-3.05426 104.915283,-9.226288 104.915283,-9.226288z" id="path2650" stroke-miterlimit="4" stroke-width="4.393855" stroke="#000000" fill-rule="evenodd" fill="url(#linearGradient2660)"/>
   <path d="m997.386292,542.681396c0,0 -87.217407,12.250305 -179.149231,12.250305c-91.931824,0 -58.930664,1.750061 -58.930664,1.750061c0,0 126.111633,0.875 166.184448,-2.625061c40.072876,-3.500122 71.895447,-11.375305 71.895447,-11.375305z" id="path2652" stroke-width="1px" fill-rule="evenodd" fill-opacity="0.237838" fill="#ffffff"/>
   <path d="m576.317871,272.193756c0,-8.365601 -1.394287,-115.724121 -1.394287,-115.724121" id="path2686" stroke-miterlimit="4" stroke-width="16.476957" stroke="#000000" fill-rule="evenodd" fill-opacity="0.75" fill="none"/>
   <path d="m572.197815,290.882996l-40.772644,-28.78067l0,-91.138779c0,0 11.991943,-21.58551 40.772644,-21.58551c28.78064,0 9.593506,-2.398392 9.593506,-2.398392" id="path2874" stroke-miterlimit="4" stroke-width="6.865398" stroke="#000000" fill-rule="evenodd" fill-opacity="0.75" fill="none"/>
   <path d="m256.53833,505.487701l-1.971786,13.802521l177.461136,23.661499l3.943573,-86.758789l-179.432922,-9.858948l0,17.746124l165.630402,11.83075l0,49.294769l-165.630402,-19.717926z" id="path2722" stroke-miterlimit="4" stroke-width="2.196928" stroke="#000000" fill-rule="evenodd" fill="url(#linearGradient2744)"/>
   <path d="m102.574509,407.035828l126.074768,6.498718l15.596878,59.788025" id="path2768" stroke-miterlimit="4" stroke-width="2.196928" stroke="#000000" fill-rule="evenodd" fill-opacity="0.75" fill="none"/>
   <path d="m580.876648,557.803528a15.59682,32.493382 0 1 1 -31.193604,0a15.59682,32.493382 0 1 1 31.193604,0z" id="path2770" stroke-opacity="0.378378" stroke-dashoffset="0" stroke-miterlimit="4" stroke-linejoin="round" stroke-linecap="round" stroke-width="7.25" stroke="#8b8a91" fill-rule="nonzero" fill-opacity="0.648649" fill="#000000"/>
   <path d="m214.122925,519.060547a9.51853,24.703529 0 1 1 -19.037018,0a9.51853,24.703529 0 1 1 19.037018,0z" id="path2772" stroke-opacity="0.681081" stroke-dashoffset="0" stroke-miterlimit="4" stroke-linejoin="round" stroke-linecap="round" stroke-width="5" stroke="#8b8a91" fill-rule="nonzero" fill-opacity="0.648649" fill="#000000"/>
   <path d="m128.552963,504.269012a8.43225,22.287041 0 1 1 -16.864471,0a8.43225,22.287041 0 1 1 16.864471,0z" id="path2774" stroke-opacity="0.756757" stroke-dashoffset="0" stroke-miterlimit="4" stroke-linejoin="round" stroke-linecap="round" stroke-width="5" stroke="#8b8a91" fill-rule="nonzero" fill-opacity="0.648649" fill="#000000"/>
   <rect height="134.32489" id="rect2836" ry="6.783669" width="20.621668" x="294.14731" y="236.31815" stroke-opacity="0.918919" stroke-dashoffset="0" stroke-miterlimit="4" stroke-linejoin="round" stroke-linecap="round" stroke-width="1.659237" fill-rule="nonzero" fill-opacity="0.318919" fill="#ffffff" opacity="0.984293"/>
   <rect height="131.78107" id="rect2838" width="20.621656" x="250.20879" y="241.05896" stroke-opacity="0.918919" stroke-dashoffset="0" stroke-miterlimit="4" stroke-linejoin="round" stroke-linecap="round" stroke-width="1.659237" fill-rule="nonzero" fill-opacity="0.318919" fill="#ffffff" opacity="0.984293"/>
   <rect height="131.78105" id="rect2840" width="19.906403" x="207.05185" y="243.25589" stroke-opacity="0.918919" stroke-dashoffset="0" stroke-miterlimit="4" stroke-linejoin="round" stroke-linecap="round" stroke-width="1.597691" fill-rule="nonzero" fill-opacity="0.318919" fill="#ffffff" opacity="0.984293"/>
   <rect height="129.23718" id="rect2842" width="18.225611" x="164.82945" y="247.99669" stroke-opacity="0.918919" stroke-dashoffset="0" stroke-miterlimit="4" stroke-linejoin="round" stroke-linecap="round" stroke-width="1.563911" fill-rule="nonzero" fill-opacity="0.318919" fill="#ffffff" opacity="0.984293"/>
   <rect height="125.84537" id="rect2844" width="16.677492" x="122.54074" y="251.38853" stroke-opacity="0.918919" stroke-dashoffset="0" stroke-miterlimit="4" stroke-linejoin="round" stroke-linecap="round" stroke-width="1.462384" fill-rule="nonzero" fill-opacity="0.27027" fill="#ffffff" opacity="0.984293"/>
   <rect height="115.66986" id="rect2846" width="15.129378" x="80.251999" y="253.58546" stroke-opacity="0.918919" stroke-dashoffset="0" stroke-miterlimit="4" stroke-linejoin="round" stroke-linecap="round" stroke-width="1.353262" fill-rule="nonzero" fill-opacity="0.254054" fill="#ffffff" opacity="0.984293"/>
   <path d="m58.38335,256.266022l293.741192,-25.994797" id="path2820" stroke-opacity="0.389189" stroke-miterlimit="4" stroke-width="5.492319" stroke="#000000" fill-rule="evenodd" fill-opacity="0.75" fill="none"/>
   <path d="m516.989929,535.119324c0,0 1.386658,-25.438782 11.093079,-37.310211c9.706421,-11.871429 16.639587,-20.351013 24.959351,-20.351013c8.319763,0 -12.479675,13.567352 -12.479675,13.567352c0,0 -9.706421,10.175507 -13.866333,22.046936c-4.159851,11.871399 -9.706421,22.046936 -9.706421,22.046936z" id="path2848" stroke-width="1px" fill-rule="evenodd" fill-opacity="0.194595" fill="#ffffff"/>
   <path d="m174.414673,496.11319c0,0 0.891769,-19.453156 7.134186,-28.531311c6.242432,-9.078156 10.701294,-15.562531 16.051926,-15.562531c5.350662,0 -8.02597,10.375031 -8.02597,10.375031c0,0 -6.242401,7.78125 -8.917725,16.859406c-2.675323,9.078125 -6.242416,16.859406 -6.242416,16.859406z" id="path2850" stroke-width="1px" fill-rule="evenodd" fill-opacity="0.264865" fill="#ffffff"/>
   <path d="m96.402473,489.329529c0,0 0.891769,-19.453186 7.134186,-28.531311c6.242432,-9.078156 10.701294,-15.562531 16.051933,-15.562531c5.350647,0 -8.02597,10.375 -8.02597,10.375c0,0 -6.242401,7.781281 -8.917725,16.859436c-2.675331,9.078125 -6.242424,16.859406 -6.242424,16.859406z" id="path2852" stroke-width="1px" fill-rule="evenodd" fill-opacity="0.302703" fill="#ffffff"/>
   <path d="m512.220886,163.770752c-5.31485,0 -9.577271,3.512375 -9.577271,7.860886l0,13.078568c0,4.348511 4.262421,7.826569 9.577271,7.826569c-5.31485,0 -9.577271,9.923157 -9.577271,22.243881l0,37.073151c0,12.320755 4.262421,22.243881 9.577271,22.243881l38.377563,0c5.314819,0 9.611511,-9.923126 9.611511,-22.243881l0,-37.073151c0,-12.32074 -4.296692,-22.243881 -9.611511,-22.243881c5.314819,0 9.611511,-3.478073 9.611511,-7.826569l0,-13.078568c0,-4.348511 -4.296692,-7.860886 -9.611511,-7.860886l-38.377563,0z" id="rect2870" stroke-dashoffset="0" stroke-miterlimit="4" stroke-linejoin="round" stroke-linecap="round" stroke-width="3.158083" stroke="#000000" fill-rule="nonzero" fill="url(#linearGradient2893)"/>
   <path d="m441.708466,404.274963l1.83963,144.411682l51.509888,8.278381c0,0 -31.273865,-14.717163 -38.632416,-46.910828c-7.358551,-32.193665 -14.717102,-105.779236 -14.717102,-105.779236z" id="path2895" stroke-width="1px" fill-rule="evenodd" fill-opacity="0.621622" fill="#000000"/>
   <path d="m537.36969,410.713715c0,0 48.402954,-5.518921 60.503723,0c12.100769,5.51889 34.789673,29.434204 40.840027,40.472046c6.050354,11.037842 -25.714111,-27.594574 -40.840027,-31.273865c-15.125916,-3.679291 -60.503723,-9.198181 -60.503723,-9.198181z" id="path2897" stroke-width="1px" fill-rule="evenodd" fill-opacity="0.081081" fill="#ffffff"/>
  </g>
 </g>
</svg>